<?xml version="1.0" standalone="no"?>
<!DOCTYPE svg PUBLIC "-//W3C//DTD SVG 20010904//EN"
 "http://www.w3.org/TR/2001/REC-SVG-20010904/DTD/svg10.dtd">
<svg version="1.0" xmlns="http://www.w3.org/2000/svg"
 width="512.000000pt" height="512.000000pt" viewBox="0 0 512.000000 512.000000"
 preserveAspectRatio="xMidYMid meet">
<metadata>
Created by potrace 1.14, written by Peter Selinger 2001-2017
</metadata>
<g transform="translate(0.000000,512.000000) scale(0.100000,-0.100000)"
fill="#000000" stroke="none">
<path d="M1030 5110 c0 -3 -12 -6 -27 -5 -16 0 -40 -6 -55 -13 -15 -7 -37 -14
-48 -15 -11 -1 -20 -5 -20 -9 0 -4 -5 -8 -11 -8 -18 0 -102 -62 -150 -111 -50
-51 -111 -166 -128 -239 -7 -30 -9 -675 -8 -1935 3 -1635 5 -1917 17 -1932 3
-4 7 -20 9 -34 0 -5 5 -8 10 -5 5 4 7 -2 4 -13 -9 -36 85 -148 351 -413 147
-148 271 -268 275 -268 4 0 16 -8 27 -18 30 -26 80 -52 88 -45 3 3 6 2 6 -4 0
-10 22 -19 80 -31 30 -6 206 -5 235 1 22 5 41 12 95 35 19 8 38 14 43 14 4 -1
7 2 7 7 0 5 9 13 21 16 11 4 33 20 50 35 16 16 29 26 29 22 0 -4 12 10 27 31
14 20 30 37 35 37 4 0 8 7 8 15 0 8 5 15 11 15 5 0 8 4 4 9 -3 5 -1 12 5 16
23 14 62 132 65 196 1 19 4 40 6 45 3 5 4 940 4 2077 -1 1784 -3 2070 -16
2078 -9 5 -10 9 -2 9 9 0 9 11 -1 45 -8 25 -12 45 -10 45 2 0 -8 20 -22 45
-13 25 -22 45 -19 45 6 0 -6 16 -37 51 -10 10 -18 21 -18 24 0 11 -89 92 -95
87 -3 -3 -5 0 -5 6 0 7 -5 12 -10 12 -6 0 -28 11 -49 24 -21 14 -42 22 -45 19
-3 -4 -6 -1 -6 5 0 7 -13 12 -28 12 -15 0 -33 5 -40 12 -7 7 -12 8 -12 4 0 -5
-7 -3 -15 4 -11 9 -15 9 -15 1 0 -7 -5 -9 -12 -4 -15 9 -608 13 -608 3z"/>
<path d="M2650 5108 c0 -5 -6 -8 -12 -7 -24 4 -88 -13 -88 -23 0 -6 -7 -7 -15
-4 -9 3 -18 -1 -21 -9 -4 -8 -10 -12 -15 -9 -5 3 -9 0 -9 -5 0 -6 -4 -11 -10
-11 -37 0 -170 -161 -170 -206 0 -8 -5 -14 -11 -14 -5 0 -7 -5 -4 -10 4 -6 1
-17 -5 -25 -7 -8 -9 -15 -5 -15 4 0 2 -6 -4 -14 -8 -10 -9 -16 -1 -21 7 -4 7
-12 0 -26 -8 -14 -7 -19 2 -19 9 0 9 -3 2 -8 -5 -4 -9 -25 -7 -47 4 -50 4 -47
1 -123 -2 -36 1 -62 7 -62 6 0 6 -3 -1 -8 -5 -4 -9 -25 -7 -47 2 -22 3 -46 3
-52 0 -36 0 -105 0 -115 0 -7 -1 -35 -3 -61 -2 -26 0 -50 5 -53 4 -3 4 -13 0
-22 -10 -21 -9 -103 2 -120 4 -7 5 -16 1 -21 -3 -5 0 -13 6 -16 5 -4 8 -12 6
-19 -3 -6 1 -20 9 -30 7 -11 11 -23 8 -27 -3 -5 -2 -9 3 -9 4 0 14 -13 21 -28
10 -25 82 -103 126 -139 28 -24 126 -64 169 -69 23 -4 47 -10 52 -15 6 -4 17
-4 25 1 8 5 18 6 23 3 14 -9 78 -9 84 0 3 4 11 3 19 -4 11 -9 14 -9 14 0 0 7
5 9 10 6 6 -4 23 -9 37 -11 15 -3 30 -8 33 -12 3 -4 16 -15 30 -23 29 -19 77
-107 71 -132 0 -4 -3 -24 -6 -44 -6 -45 -45 -102 -87 -128 -26 -16 -61 -21
-173 -27 -171 -9 -169 -9 -176 -19 -3 -5 -17 -10 -32 -11 -15 -1 -27 -5 -27
-9 0 -4 -16 -14 -35 -23 -19 -9 -35 -22 -35 -28 0 -6 -3 -9 -6 -5 -8 8 -101
-88 -109 -113 -3 -11 -11 -20 -16 -20 -5 0 -8 -3 -7 -7 1 -5 -5 -21 -12 -38
-7 -16 -15 -38 -17 -47 -1 -10 -5 -28 -7 -40 -3 -13 -5 -23 -6 -23 -1 0 -3
-17 -4 -37 -1 -21 3 -38 9 -38 6 0 6 -3 -1 -8 -5 -4 -9 -25 -7 -47 4 -50 4
-47 1 -123 -2 -36 1 -62 7 -62 6 0 6 -3 -1 -8 -5 -4 -9 -25 -7 -47 2 -22 3
-46 3 -52 0 -7 0 -33 0 -58 0 -25 0 -53 0 -62 -2 -188 0 -238 11 -258 4 -5 9
-23 13 -39 4 -17 16 -42 27 -58 11 -15 17 -28 14 -28 -4 0 24 -32 63 -70 39
-39 77 -70 85 -70 9 0 22 -6 29 -13 19 -19 110 -46 146 -43 18 1 32 -1 32 -5
0 -5 18 -7 40 -5 22 2 43 -1 46 -5 3 -5 13 -5 22 -1 9 5 24 8 32 7 8 -1 20 3
27 7 6 5 14 5 17 -1 5 -7 15 -7 32 -1 18 7 23 7 18 -2 -4 -7 -3 -8 4 -4 7 4
42 9 80 11 37 2 68 4 70 6 4 3 13 5 77 14 64 9 74 11 78 15 1 1 11 4 22 6 25
4 59 12 63 14 1 2 7 4 12 5 6 1 13 4 18 5 4 2 12 4 17 5 6 1 24 8 40 15 17 8
35 15 40 15 58 9 356 176 378 212 4 7 14 13 22 13 8 0 18 6 22 13 4 7 19 20
33 29 48 31 280 270 280 288 0 3 14 21 31 38 17 18 27 32 23 32 -5 0 -4 4 1 8
15 11 55 70 55 82 0 5 4 10 8 10 5 0 14 16 22 35 8 19 17 35 22 35 4 0 7 3 6
8 0 4 16 43 37 86 20 44 38 84 40 90 1 6 5 20 9 31 31 80 36 96 34 103 -1 4 4
19 10 34 6 15 9 36 7 48 -2 11 0 18 6 15 5 -4 10 5 10 19 2 32 6 65 8 69 18
23 19 582 1 582 -1 0 -4 11 -5 25 -3 23 -12 70 -20 110 -2 8 -4 16 -5 18 -2 1
-4 7 -5 12 -1 6 -3 11 -5 13 -1 1 -4 15 -6 32 -3 16 -8 32 -12 35 -4 3 -9 16
-10 30 -2 14 -8 27 -13 28 -5 2 -9 11 -9 21 0 10 -13 45 -30 79 -16 34 -30 65
-30 68 0 3 -9 18 -20 34 -11 15 -17 30 -13 34 3 3 1 6 -5 6 -6 0 -14 10 -18
22 -3 12 -10 26 -15 32 -5 6 -36 49 -70 95 -84 115 -191 230 -314 338 -50 43
-181 133 -194 133 -6 0 -11 4 -11 8 0 5 -18 17 -40 27 -22 10 -40 22 -40 28 0
5 -7 7 -15 3 -8 -3 -15 -2 -15 2 0 4 -15 13 -32 21 -18 8 -51 22 -73 31 -86
38 -253 87 -285 85 -8 0 -17 2 -20 6 -3 3 -22 9 -43 12 -27 4 -36 3 -30 -6 4
-8 1 -7 -9 1 -9 8 -29 14 -45 16 -15 1 -33 5 -40 9 -6 4 -14 1 -16 -5 -4 -9
-8 -9 -14 -3 -10 13 -343 15 -343 3z"/>
</g>
</svg>
